<svg xmlns="http://www.w3.org/2000/svg" width="1200" height="630" viewBox="0 0 1200 630" role="img" aria-labelledby="title desc">
  <title id="title">Auto Research Digest</title>
  <desc id="desc">Executive Research Signal</desc>
  <defs>
    <linearGradient id="bg" x1="0%" x2="100%" y1="0%" y2="100%">
      <stop offset="0%" stop-color="#f7f1e6"/>
      <stop offset="100%" stop-color="#efe5d5"/>
    </linearGradient>
  </defs>
  <rect width="1200" height="630" fill="url(#bg)"/>
  <g stroke="#132238" stroke-opacity="0.15">
    <path d="M120 120H1080"/>
    <path d="M120 210H1080"/>
    <path d="M120 300H1080"/>
    <path d="M120 390H1080"/>
    <path d="M120 480H1080"/>
    <path d="M120 120V510"/>
    <path d="M300 120V510"/>
    <path d="M480 120V510"/>
    <path d="M660 120V510"/>
    <path d="M840 120V510"/>
    <path d="M1020 120V510"/>
  </g>
  <rect x="120" y="140" width="360" height="160" rx="28" fill="#132238"/>
  <rect x="510" y="140" width="560" height="110" rx="24" fill="#ffffff" fill-opacity="0.85"/>
  <rect x="510" y="280" width="250" height="160" rx="24" fill="#d14c2f" fill-opacity="0.12"/>
  <rect x="790" y="280" width="280" height="160" rx="24" fill="#132238" fill-opacity="0.08"/>
  <text x="160" y="210" fill="#f7f1e6" font-size="28" font-family="'IBM Plex Sans', sans-serif" letter-spacing="8">EXECUTIVE RESEARCH SIGNAL</text>
  <text x="160" y="260" fill="#f7f1e6" font-size="64" font-weight="700" font-family="'Space Grotesk', sans-serif">Auto Research Digest</text>
  <text x="550" y="200" fill="#132238" font-size="34" font-weight="700" font-family="'Space Grotesk', sans-serif">LLM • AI • AI Agents</text>
  <text x="550" y="238" fill="#132238" font-size="24" font-family="'IBM Plex Sans', sans-serif">Static executive briefings backed by official docs and papers.</text>
  <text x="550" y="350" fill="#132238" font-size="22" font-family="'IBM Plex Sans', sans-serif">Neutral tone</text>
  <text x="550" y="386" fill="#132238" font-size="22" font-family="'IBM Plex Sans', sans-serif">Infographic HTML</text>
  <text x="550" y="422" fill="#132238" font-size="22" font-family="'IBM Plex Sans', sans-serif">GitHub Pages delivery</text>
  <text x="830" y="350" fill="#132238" font-size="22" font-family="'IBM Plex Sans', sans-serif">Bilingual output</text>
  <text x="830" y="386" fill="#132238" font-size="22" font-family="'IBM Plex Sans', sans-serif">SEO metadata</text>
  <text x="830" y="422" fill="#132238" font-size="22" font-family="'IBM Plex Sans', sans-serif">Atom feed</text>
</svg>